<svg width="94" height="84" viewBox="0 0 94 84" fill="none" xmlns="http://www.w3.org/2000/svg">
<path d="M25.8141 46.8141L30.75 51.75M19.7813 49.3125C24.4929 49.3125 28.3125 45.4929 28.3125 40.7813C28.3125 36.0696 24.4929 32.25 19.7813 32.25C15.0696 32.25 11.25 36.0696 11.25 40.7813C11.25 45.4929 15.0696 49.3125 19.7813 49.3125Z" stroke="black" stroke-width="1.08333" stroke-linecap="round" stroke-linejoin="round"/>
<path d="M81.2063 50.9375H64.7938C64.5939 50.9366 64.4011 50.8628 64.2516 50.7301C64.102 50.5974 64.006 50.4148 63.9813 50.2164L62.5391 37.2164C62.5263 37.1031 62.5374 36.9884 62.5718 36.8798C62.6062 36.7711 62.6631 36.6709 62.7388 36.5856C62.8145 36.5004 62.9072 36.432 63.0111 36.3849C63.1149 36.3379 63.2274 36.3132 63.3414 36.3125H82.6586C82.7726 36.3132 82.8852 36.3379 82.989 36.385C83.0928 36.432 83.1856 36.5004 83.2612 36.5857C83.3369 36.6709 83.3938 36.7711 83.4282 36.8798C83.4626 36.9885 83.4738 37.1031 83.461 37.2164L82.0188 50.2164C81.9941 50.4148 81.898 50.5974 81.7485 50.7301C81.5989 50.8628 81.4062 50.9365 81.2063 50.9375Z" stroke="black" stroke-width="1.08333" stroke-linecap="round" stroke-linejoin="round"/>
<path d="M68.9375 39.5625V36.3125C68.9375 35.2351 69.3655 34.2017 70.1274 33.4399C70.8892 32.678 71.9226 32.25 73 32.25C74.0774 32.25 75.1108 32.678 75.8726 33.4399C76.6345 34.2017 77.0625 35.2351 77.0625 36.3125V39.5625" stroke="black" stroke-width="1.08333" stroke-linecap="round" stroke-linejoin="round"/>
</svg>
